<svg width="28" height="28" viewBox="0 0 28 28" fill="none" xmlns="http://www.w3.org/2000/svg">
<circle cx="14" cy="14" r="14" fill="#ED0000"/>
<g clip-path="url(#clip0_1633_37062)">
<path fill-rule="evenodd" clip-rule="evenodd" d="M19.4652 20.8389C19.2826 20.8389 19.0999 20.7713 18.9605 20.636C18.6818 20.3655 18.6818 19.9269 18.9605 19.6563C19.3343 19.2936 19.6738 18.8942 19.9696 18.4693C20.2686 18.0397 20.5257 17.58 20.7335 17.1031C21.1661 16.1103 21.3855 15.0575 21.3855 13.9742C21.3855 12.8908 21.1661 11.8382 20.7335 10.8454C20.5257 10.3685 20.2687 9.90873 19.9695 9.47898C19.6738 9.05418 19.3343 8.65484 18.9605 8.29202C18.6818 8.02145 18.6818 7.58284 18.9605 7.3123C19.2392 7.04173 19.6912 7.04173 19.9699 7.3123C20.408 7.7375 20.8058 8.2055 21.1523 8.70336C21.5031 9.20724 21.8045 9.74638 22.0482 10.3057C22.5556 11.4702 22.8129 12.7044 22.8129 13.9742C22.8129 15.2439 22.5556 16.4782 22.0482 17.6428C21.8045 18.2021 21.503 18.7411 21.1524 19.2449C20.8057 19.7429 20.4079 20.2109 19.9699 20.636C19.8306 20.7713 19.6478 20.8389 19.4652 20.8389Z" fill="white"/>
<path fill-rule="evenodd" clip-rule="evenodd" d="M17.0721 18.5184C16.8895 18.5184 16.7068 18.4508 16.5674 18.3155C16.2887 18.045 16.2887 17.6063 16.5674 17.3358C16.789 17.1207 16.9901 16.8841 17.1652 16.6325C17.3421 16.3786 17.4939 16.107 17.6166 15.8254C17.8719 15.2397 18.0012 14.6174 18.0012 13.976C18.0012 13.3346 17.8719 12.7123 17.6166 12.1265C17.4939 11.8449 17.3421 11.5734 17.1652 11.3194C16.9901 11.0679 16.789 10.8313 16.5674 10.6161C16.2887 10.3456 16.2887 9.907 16.5675 9.6365C16.8462 9.3659 17.2981 9.36601 17.5769 9.63654C17.8627 9.914 18.1221 10.2192 18.348 10.5438C18.5764 10.8719 18.7727 11.2228 18.9313 11.5868C19.2614 12.3443 19.4287 13.1481 19.4287 13.976C19.4287 14.8038 19.2614 15.6076 18.9313 16.3652C18.7727 16.7292 18.5764 17.0801 18.348 17.4082C18.1221 17.7328 17.8626 18.038 17.5769 18.3155C17.4375 18.4507 17.2548 18.5184 17.0721 18.5184Z" fill="white"/>
<path fill-rule="evenodd" clip-rule="evenodd" d="M8.01425 20.8389C7.83161 20.8389 7.64893 20.7713 7.50957 20.636C7.07156 20.2109 6.67371 19.7428 6.32714 19.2449C5.97639 18.7411 5.67505 18.202 5.43129 17.6428C4.92382 16.4782 4.6665 15.2439 4.6665 13.9741C4.6665 12.7044 4.92382 11.4701 5.43129 10.3056C5.67497 9.74634 5.97639 9.20724 6.32714 8.70333C6.67367 8.20546 7.07152 7.73746 7.50957 7.31227C7.7883 7.04177 8.24024 7.04173 8.51897 7.31223C8.79767 7.58276 8.79767 8.02141 8.51897 8.29195C8.14513 8.6548 7.80565 9.05415 7.50998 9.47894C7.21085 9.9087 6.95379 10.3684 6.74599 10.8453C6.31335 11.8381 6.09397 12.8908 6.09397 13.9741C6.09397 15.0575 6.31335 16.1102 6.74599 17.103C6.95383 17.5799 7.21085 18.0396 7.50994 18.4693C7.80565 18.8941 8.14513 19.2935 8.51894 19.6563C8.79767 19.9268 8.79767 20.3654 8.51894 20.636C8.37961 20.7712 8.19693 20.8389 8.01425 20.8389Z" fill="white"/>
<path fill-rule="evenodd" clip-rule="evenodd" d="M10.4069 18.5183C10.2242 18.5183 10.0416 18.4507 9.90221 18.3154C9.61641 18.038 9.35695 17.7328 9.13096 17.4082C8.90257 17.08 8.70633 16.7291 8.54773 16.3651C8.21764 15.6076 8.05029 14.8039 8.05029 13.976C8.05029 13.1481 8.21764 12.3443 8.54773 11.5868C8.70633 11.2229 8.90257 10.8719 9.13096 10.5438C9.35695 10.2191 9.61641 9.9139 9.90221 9.63651C10.1809 9.36598 10.6328 9.36594 10.9116 9.63648C11.1903 9.90701 11.1903 10.3456 10.9116 10.6162C10.6901 10.8312 10.4889 11.0678 10.3138 11.3194C10.137 11.5734 9.98511 11.8449 9.86246 12.1265C9.60717 12.7122 9.47776 13.3345 9.47776 13.976C9.47776 14.6174 9.60717 15.2397 9.86246 15.8254C9.98511 16.107 10.137 16.3785 10.3138 16.6325C10.4889 16.8841 10.6901 17.1207 10.9116 17.3357C11.1903 17.6063 11.1903 18.0449 10.9116 18.3155C10.7722 18.4507 10.5895 18.5183 10.4069 18.5183Z" fill="white"/>
<path d="M13.7896 15.5475C14.6787 15.5475 15.3995 14.8479 15.3995 13.9849C15.3995 13.122 14.6787 12.4224 13.7896 12.4224C12.9005 12.4224 12.1797 13.122 12.1797 13.9849C12.1797 14.8479 12.9005 15.5475 13.7896 15.5475Z" fill="white"/>
</g>
<defs>
<clipPath id="clip0_1633_37062">
<rect width="18.6667" height="14" fill="white" transform="translate(4.6665 7)"/>
</clipPath>
</defs>
</svg>