<svg xmlns="http://www.w3.org/2000/svg" width="16" height="14" viewBox="0 0 16 14">
    <g fill="#FF1B43" fill-rule="evenodd">
        <path d="M12.977 13.25c-.16 0-.32-.06-.443-.183-.244-.244-.244-.64 0-.885.328-.327.626-.688.885-1.072.262-.388.488-.804.67-1.235.38-.897.572-1.848.572-2.826 0-.98-.193-1.93-.572-2.827-.182-.431-.407-.847-.67-1.235-.26-.384-.557-.744-.885-1.072-.244-.245-.244-.641 0-.885.245-.245.641-.245.885 0 .385.384.734.807 1.037 1.256.308.456.572.943.786 1.448.445 1.052.67 2.167.67 3.315 0 1.147-.225 2.262-.67 3.314-.214.505-.478.992-.786 1.448-.304.45-.652.872-1.036 1.256-.123.123-.283.184-.443.184"/>
        <path d="M10.879 11.152c-.16 0-.32-.06-.443-.183-.244-.244-.244-.64 0-.885.194-.194.37-.408.524-.635.155-.23.289-.475.396-.73.224-.529.337-1.09.337-1.67 0-.58-.113-1.142-.337-1.671-.107-.255-.24-.5-.396-.73-.153-.227-.33-.44-.524-.635-.244-.244-.244-.64 0-.885.245-.245.64-.245.885 0 .25.25.478.526.677.82.2.296.372.613.511.942.29.684.436 1.41.436 2.159 0 .747-.147 1.474-.436 2.158-.14.329-.311.646-.511.942-.199.294-.426.57-.677.82-.122.122-.282.183-.442.183M2.936 13.25c-.16 0-.32-.06-.443-.183-.384-.384-.733-.807-1.037-1.256-.307-.456-.572-.943-.785-1.448C.226 9.311 0 8.196 0 7.05 0 5.9.226 4.786.67 3.734c.214-.505.479-.992.786-1.448.304-.45.653-.872 1.037-1.256.245-.245.64-.245.885 0 .245.244.245.64 0 .885-.328.328-.625.688-.885 1.072-.262.388-.487.804-.67 1.235-.379.897-.571 1.848-.571 2.827 0 .978.192 1.93.572 2.826.182.431.407.847.67 1.235.259.384.556.745.884 1.072.245.245.245.641 0 .885-.122.123-.282.184-.442.184"/>
        <path d="M5.034 11.152c-.16 0-.32-.06-.443-.183-.25-.25-.478-.526-.676-.82-.2-.296-.372-.613-.511-.942-.29-.684-.437-1.41-.437-2.158s.147-1.475.437-2.16c.139-.328.31-.645.511-.941.198-.294.426-.57.676-.82.245-.245.641-.245.885 0 .245.244.245.64 0 .885-.194.194-.37.408-.524.635-.155.23-.288.475-.395.73-.224.529-.338 1.091-.338 1.67 0 .58.114 1.142.338 1.671.107.255.24.5.395.73.154.227.33.44.525.635.244.244.244.64 0 .885-.123.122-.283.183-.443.183"/>
        <circle cx="8" cy="7.059" r="1.412"/>
    </g>
</svg>